# xmcd CD database file
#
# Track frame offsets:
#	150
#	20982
#	41970
#	57857
#	81377
#	101577
#
# Disc length: 1648 seconds
#
# Revision: 1
# Processed by: cddbd v1.4PL0 Copyright (c) Steve Scherf et al.
# Submitted via: CDex 1.40Release
#
DISCID=51066e06
DTITLE=J-Blues - Stand - Ryo Tachihara
DYEAR=1997
DGENRE=Blues
TTITLE0=Stand
TTITLE1=Burning Down The House
TTITLE2=Sookie Sookie
TTITLE3=FINE
TTITLE4=I Feel The Earth Move
TTITLE5=Stand By My Woman
EXTD=YEAR: 1997 ID3G: 0
EXTT0=
EXTT1=
EXTT2=
EXTT3=
EXTT4=
EXTT5=
PLAYORDER=
